General

Format                           : MPEG-4
Format profile                   : Base Media / Version 2
Codec ID                         : mp42
File size                        : 63.4 MiB
Duration                         : 23mn 49s
Overall bit rate                 : 372 Kbps
Encoded date                     : UTC 2011-10-18 20:41:26
Tagged date                      : UTC 2011-10-18 20:44:49
Writing application              : HandBrake 4140svn 2011072501

Video

ID                               : 1
Format                           : AVC
Format/Info                      : Advanced Video Codec
Format profile                   : Baseline@L3.0
Format settings, CABAC           : No
Format settings, ReFrames        : 2 frames
Codec ID                         : avc1
Codec ID/Info                    : Advanced Video Coding
Duration                         : 23mn 49s
Bit rate mode                    : Variable
Bit rate                         : 208 Kbps
Width                            : 640 pixels
Height                           : 352 pixels
Display aspect ratio             : 16:9
Frame rate mode                  : Variable
Frame rate                       : 23.976 fps
Minimum frame rate               : 23.810 fps
Maximum frame rate               : 24.390 fps
Color space                      : YUV
Chroma subsampling               : 4:2:0
Bit depth                        : 8 bits
Scan type                        : Progressive
Bits/(Pixel*Frame)               : 0.039
Stream size                      : 35.5 MiB (56%)

Audio

ID                               : 2
Format                           : AAC
Format/Info                      : Advanced Audio Codec
Format profile                   : LC
Codec ID                         : 40
Duration                         : 23mn 49s
Bit rate mode                    : Variable
Bit rate                         : 160 Kbps
Maximum bit rate                 : 296 Kbps
Channel(s)                       : 2 channels
Channel positions                : Front: L R
Sampling rate                    : 48.0 KHz
Compression mode                 : Lossy
Stream size                      : 27.3 MiB (43%)
Language                         : Japanese
Encoded date                     : UTC 2011-10-18 20:41:26
Tagged date                      : UTC 2011-10-18 20:44:49

Download and Enjoy...Keep Seeding...